<svg width="143" height="35" viewBox="0 0 143 35" fill="none" xmlns="http://www.w3.org/2000/svg">
<path d="M33.0837 9.52496C32.971 9.29952 32.661 9.3277 32.5765 9.58132C32.2665 10.4549 31.4493 11.1031 30.4912 11.1594V11.1876H30.4066C28.6031 11.1876 27.8986 11.6385 27.3913 12.3994L19.9235 27.6449C19.6135 28.2931 19.0499 28.7721 18.3454 28.9412C17.2464 29.1948 16.1755 28.6594 15.7246 27.7013L7.86232 11.2721H11.0467C12.9348 11.2721 14.6538 12.3712 15.4428 14.0902C15.6401 14.5411 15.6401 15.0765 15.4428 15.5274L14.3438 18.0918C14.2311 18.3454 14.2874 18.6554 14.5129 18.8527C14.6256 18.9654 14.7665 18.9936 14.9074 18.9936C15.161 18.9936 15.3865 18.8527 15.471 18.599L16.1192 17.1337C16.3446 16.57 17.1337 16.57 17.3873 17.1337C17.4718 17.3027 17.4718 17.5 17.3873 17.6691L15.5837 21.868C15.4428 22.1779 15.5837 22.5443 15.9219 22.6852C16.0064 22.7134 16.091 22.7415 16.1755 22.7415C16.4292 22.7415 16.6546 22.6006 16.7391 22.347L18.2327 18.8527L20.3744 14.0056C21.1635 12.2866 22.8825 11.1876 24.7705 11.1876H25.8132C25.8132 11.1876 27.9549 11.1876 27.9549 8.79227C28.2649 6.81965 29.6739 6.48148 30.5193 6.48148C30.773 6.48148 30.8857 6.19968 30.7166 6.00242C27.4759 2.33897 22.7697 0 17.5 0C7.83414 0 0 7.83414 0 17.5C0 27.1659 7.83414 35 17.5 35C27.1659 35 35 27.1659 35 17.5C35 14.6256 34.2955 11.9203 33.0837 9.52496Z" fill="#3161F1"/>
<path d="M56.1916 12.8221L49.2029 27.1659C48.9211 27.7295 48.1038 27.7295 47.822 27.1659L42.4678 16.0065H44.4122C45.5676 16.0065 46.6103 16.6828 47.0894 17.7255L48.5547 21.1353L51.57 14.5129C52.0491 13.4703 53.0918 12.7939 54.2472 12.7939H56.1916V12.8221Z" fill="#222222"/>
<path d="M60.3903 12.8213V24.1498C60.3903 26.0379 58.8685 27.5596 56.9805 27.5596V15.752C56.9805 14.1176 58.3049 12.8213 59.9112 12.8213H60.3903Z" fill="#222222"/>
<path d="M64.7021 16.2594C64.7021 14.3713 66.2239 12.8496 68.112 12.8496V14.5686C68.7319 13.9205 69.2956 13.4696 69.7746 13.216C70.2819 12.9623 70.8455 12.8496 71.5218 12.8496H71.55C73.0435 12.8496 73.9171 14.5404 73.269 15.8931L72.7899 16.8512C72.1418 16.4003 71.5218 16.1467 70.9018 16.1467C69.0419 16.1467 68.112 17.5557 68.112 20.3456V24.1499C68.112 26.038 66.5902 27.5598 64.7021 27.5598V16.2594Z" fill="#222222"/>
<path d="M80.906 16.0061V24.1503C80.906 26.0383 79.3843 27.5601 77.4962 27.5601V16.0061H77.4117C75.9463 16.0061 74.7627 14.8226 74.7627 13.3572V12.8218H77.4962V10.821C77.4962 8.93287 79.0179 7.41113 80.906 7.41113V12.8218C82.3714 12.8218 83.555 14.0053 83.555 15.4707V16.0061H80.906Z" fill="#222222"/>
<path d="M89.2752 12.8213V20.8809C89.2752 23.3326 90.2333 24.5443 92.1778 24.5443C94.094 24.5443 95.0803 23.3326 95.0803 20.8809V16.2311C95.0803 14.343 96.6021 12.8213 98.4902 12.8213V20.9654C98.4902 22.149 98.3493 23.1635 98.0393 24.0089C97.7575 24.7698 97.2784 25.4743 96.5739 26.0942C95.4185 27.0805 93.9531 27.5878 92.1778 27.5878C90.4024 27.5878 88.9652 27.0805 87.8098 26.0942C87.1053 25.4743 86.5981 24.7979 86.3163 24.0089C86.0345 23.3326 85.8936 22.3181 85.8936 20.9654V16.2311C85.8936 14.343 87.4153 12.8213 89.2752 12.8213Z" fill="#222222"/>
<path d="M101.787 16.2593C101.787 14.3712 103.309 12.8495 105.197 12.8495V14.5967C106.381 13.4131 107.733 12.8213 109.227 12.8213C110.946 12.8213 112.27 13.3567 113.228 14.4276C114.046 15.3575 114.468 16.8511 114.468 18.9082V24.1216C114.468 26.0097 112.947 27.5314 111.058 27.5314V19.7255C111.058 18.2601 110.861 17.2738 110.438 16.7102C110.044 16.1466 109.339 15.8648 108.297 15.8648C107.17 15.8648 106.352 16.2311 105.901 16.992C105.451 17.7247 105.197 18.5983 105.197 20.4582V24.1498C105.197 26.0379 103.675 27.5596 101.787 27.5596V16.2593Z" fill="#222222"/>
<path d="M121.203 12.8213V20.8809C121.203 23.3326 122.161 24.5443 124.106 24.5443C126.05 24.5443 127.008 23.3326 127.008 20.8809V16.2311C127.008 14.343 128.53 12.8213 130.418 12.8213V20.9654C130.418 22.149 130.277 23.1635 129.967 24.0089C129.686 24.7698 129.207 25.4743 128.502 26.0942C127.347 27.0805 125.881 27.5878 124.106 27.5878C122.331 27.5878 120.893 27.0805 119.738 26.0942C119.033 25.4743 118.526 24.7979 118.244 24.0089C117.963 23.3326 117.822 22.3181 117.822 20.9654V16.2311C117.793 14.343 119.315 12.8213 121.203 12.8213Z" fill="#222222"/>
<path d="M139.944 16.711L139.38 17.021C138.958 16.1474 138.45 15.7247 137.83 15.7247C137.52 15.7247 137.267 15.8092 137.069 16.0065C136.872 16.2038 136.759 16.4574 136.759 16.7674C136.759 17.3028 137.379 17.8382 138.619 18.3737C140.338 19.1063 141.494 19.7827 142.086 20.4026C142.677 21.0226 142.987 21.868 142.987 22.9107C142.987 24.2634 142.48 25.3906 141.494 26.2923C140.536 27.1659 139.352 27.5886 137.999 27.5886C136.619 27.5886 135.463 27.1941 134.561 26.3769C133.519 25.4751 133.857 23.7561 135.097 23.1925L135.773 22.8825C136.168 23.5588 136.449 23.9815 136.647 24.1506C137.041 24.517 137.52 24.6861 138.056 24.6861C139.155 24.6861 139.69 24.1788 139.69 23.1925C139.69 22.6289 139.268 22.0935 138.422 21.5862C138.084 21.4171 137.774 21.2762 137.436 21.1072C137.098 20.9663 136.788 20.7972 136.449 20.6281C135.52 20.1772 134.843 19.6981 134.477 19.2472C133.998 18.6555 133.744 17.9228 133.744 16.9928C133.744 15.7811 134.167 14.7666 134.984 13.9775C135.829 13.1885 136.872 12.7939 138.084 12.7939C138.76 12.7939 139.38 12.9348 139.944 13.1885C141.325 13.9212 141.353 15.9501 139.944 16.711Z" fill="#222222"/>
<path d="M58.7842 11.4688C59.9114 11.4688 60.785 10.4261 60.475 9.24255C60.3341 8.65076 59.8268 8.17169 59.235 8.00261C58.0515 7.69263 57.0088 8.56622 57.0088 9.69343C57.037 10.6797 57.826 11.4688 58.7842 11.4688Z" fill="#222222"/>
<path d="M55.7408 13.7802C55.7408 13.7802 56.7271 11.4412 58.9251 11.4412C58.8688 10.314 57.8825 10.1449 57.8825 10.1449L57.0652 9.6377C57.0652 9.6377 57.0652 10.5676 56.558 11.4412C56.0789 12.2585 55.2335 12.8221 54.2754 12.8221" fill="#222222"/>
</svg>
