<svg width="151" height="38" viewBox="0 0 151 38" fill="none" xmlns="http://www.w3.org/2000/svg">
<g clip-path="url(#clip0_595_23)">
<path d="M5.08 29.13H27.73C28.83 29.13 29.72 28.24 29.72 27.14V1.99C29.72 0.89 28.83 0 27.73 0H3.99C1.79 0 0 1.78 0 3.98V32.21C0 32.21 0 32.27 0 32.3C0 35.15 2.32 37.46 5.16 37.46H28.72C29.27 37.46 29.71 37.02 29.71 36.47C29.71 35.92 29.27 35.48 28.72 35.48H5.16C3.41 35.48 1.99 34.06 1.99 32.31C1.99 30.56 3.37 29.19 5.08 29.14V29.13ZM10.22 24.79L14.68 17.07C14.77 16.92 14.98 16.92 15.07 17.07L19.53 24.79C19.64 24.97 19.45 25.19 19.26 25.11L14.96 23.5C14.91 23.48 14.85 23.48 14.8 23.5L10.5 25.11C10.3 25.18 10.12 24.97 10.22 24.79ZM12.27 8.97C13.46 8.82 14.38 7.87 14.51 6.68L14.84 3.43L15.17 6.68C15.29 7.87 16.22 8.82 17.41 8.97L19.68 9.25L17.41 9.53C16.22 9.68 15.29 10.63 15.17 11.82L14.84 15.07L14.51 11.82C14.39 10.63 13.46 9.68 12.27 9.53L10 9.25L12.27 8.97Z" fill="#3161F1"/>
<path d="M110.8 12.06V26.05H114.01V10.38H112.48C111.55 10.38 110.8 11.13 110.8 12.06Z" fill="#333535"/>
<path d="M110.8 6.42999V8.43999H112.63C113.4 8.43999 114.02 7.81999 114.02 7.04999V5.03999H112.19C111.42 5.03999 110.8 5.65999 110.8 6.42999Z" fill="#333535"/>
<path d="M106.19 10.36C105.74 10.47 105.32 10.63 104.93 10.84C104.74 10.94 104.57 11.06 104.4 11.18V10.4H102.83C101.92 10.4 101.19 11.13 101.19 12.04V26.04H102.77C103.68 26.04 104.41 25.31 104.41 24.4V23.07C104.41 21.08 104.41 19.02 104.41 16.99C104.41 16.61 104.44 16.24 104.5 15.89C104.71 14.61 105.49 13.79 106.76 13.52C106.96 13.48 107.17 13.46 107.4 13.43C107.52 13.42 107.64 13.41 107.76 13.39L108.44 13.31V11.89C108.44 10.94 107.63 10.2 106.68 10.28C106.47 10.3 106.3 10.32 106.2 10.34L106.19 10.36Z" fill="#333535"/>
<path d="M86.64 20.35C86.42 19.49 85.92 18.75 85.1 18.09C84.52 17.62 83.85 17.23 83 16.86C82.71 16.74 82.41 16.62 82.13 16.5C81.83 16.38 81.51 16.25 81.21 16.12C80.64 15.88 80.24 15.65 79.91 15.38C79.54 15.07 79.39 14.69 79.44 14.18C79.46 13.95 79.55 13.6 80.05 13.29C80.49 13.02 80.97 12.94 81.52 13.06C82.29 13.22 82.74 13.64 82.93 14.37C82.94 14.41 82.95 14.45 82.96 14.49C82.96 14.52 82.97 14.55 82.98 14.59L83.15 15.4L84.32 15.07C85.37 14.78 85.99 13.68 85.67 12.63C85.65 12.56 85.63 12.5 85.61 12.45C85.25 11.67 84.66 11.03 83.87 10.55C83.2 10.14 82.42 9.90999 81.55 9.83999C80.24 9.73999 79.06 10.06 78.05 10.77C76.54 11.84 75.88 13.62 76.33 15.41C76.57 16.36 77.1 17.16 77.97 17.88C78.56 18.36 79.25 18.78 80.1 19.14C80.4 19.27 80.7 19.39 81 19.52C81.29 19.64 81.58 19.76 81.86 19.88C82.42 20.12 82.84 20.37 83.2 20.66C83.58 20.97 83.63 21.47 83.49 21.8C83.36 22.11 83.13 22.35 82.77 22.53C82.34 22.75 81.9 22.86 81.43 22.86C81.17 22.86 80.91 22.83 80.63 22.76C80.03 22.62 79.58 22.3 79.28 21.8C79.28 21.8 79.28 21.8 79.28 21.79C78.87 20.95 77.94 20.51 77.04 20.76L75.86 21.09L75.93 21.72C75.97 22.06 76.05 22.4 76.17 22.72C76.62 23.87 77.43 24.75 78.6 25.36C79.47 25.81 80.41 26.04 81.38 26.04C81.86 26.04 82.37 25.98 82.87 25.87C83.96 25.62 84.88 25.12 85.59 24.38C86.68 23.24 87.04 21.84 86.65 20.33L86.64 20.35Z" fill="#333535"/>
<path d="M132.19 8.93V6.09V5.2H130.44C129.63 5.2 128.98 5.85 128.98 6.66V11.71C127.41 10.64 125.86 10.3 125.86 10.3C125.28 10.19 124.7 10.13 124.14 10.13C122.6 10.13 121.15 10.57 119.84 11.42C117.94 12.66 116.77 14.43 116.38 16.69C116.01 18.8 116.41 20.75 117.56 22.5C118.8 24.39 120.57 25.55 122.81 25.94C123.32 26.03 123.82 26.07 124.31 26.07C125.86 26.07 127.31 25.63 128.63 24.76C130.51 23.52 131.66 21.75 132.06 19.51C132.14 19.03 132.19 18.51 132.19 17.92C132.19 16.59 132.19 10.25 132.19 8.94V8.93ZM124.23 22.91H124.2C121.53 22.91 119.43 20.8 119.42 18.11C119.42 16.8 119.91 15.58 120.81 14.67C121.7 13.77 122.91 13.28 124.21 13.27H124.22C126.88 13.27 128.97 15.38 128.98 18.08C128.98 20.77 126.9 22.89 124.23 22.9V22.91Z" fill="#333535"/>
<path d="M150.34 15.8C150.26 15.5 150.17 15.21 150.07 14.93C150.02 14.77 149.96 14.61 149.89 14.46C149.77 14.18 149.63 13.92 149.49 13.69C148.07 11.33 145.5 9.81 142.53 9.81C137.98 9.81 134.41 13.37 134.4 17.93C134.4 20.12 135.23 22.17 136.76 23.7C138.29 25.23 140.33 26.07 142.53 26.07C143.98 26.07 145.37 25.7 146.58 25.01C146.76 24.91 147.03 24.71 147.31 24.47C148.2 23.74 148.15 22.36 147.2 21.7L146.36 21.11L145.9 21.54C144.99 22.4 143.79 22.87 142.52 22.88H142.5C141.18 22.88 139.95 22.37 139.04 21.45C138.78 21.19 138.56 20.9 138.37 20.59C138.37 20.59 138.37 20.57 138.36 20.57C138.11 20.16 137.92 19.71 137.79 19.24H137.81C137.09 16.66 138.58 14.98 138.58 14.98C139.46 13.78 140.88 13.01 142.5 13.01H142.51C144.62 13.01 146.43 14.32 147.12 16.23H140.47C139.6 16.23 138.9 16.93 138.89 17.8C138.89 18.24 138.94 18.72 139.09 19.24H147.67C149.46 19.24 150.79 17.54 150.33 15.81L150.34 15.8Z" fill="#333535"/>
<path d="M98.0399 22.22L97.2899 22.44C97.1999 22.46 97.1199 22.49 97.0399 22.52C96.8699 22.57 96.7099 22.62 96.5499 22.66C96.0499 22.79 95.5999 22.85 95.1599 22.85C94.8799 22.85 94.5999 22.82 94.3399 22.77C93.3899 22.58 92.8399 22.03 92.6599 21.09C92.5999 20.78 92.5699 20.43 92.5699 20.05C92.5699 18 92.5699 15.51 92.5699 12.99H95.7799C96.8699 12.99 97.7499 12.11 97.7499 11.02V9.73999H92.5599C92.5599 9.45999 92.5599 9.17999 92.5599 8.89999V5.25999H91.2799C90.1899 5.25999 89.3099 6.13999 89.3099 7.22999V9.44999C89.3099 12.99 89.3099 17.06 89.3099 20.09C89.3099 21.11 89.4699 21.99 89.7999 22.77C90.4399 24.3 91.6099 25.31 93.2599 25.79C93.8499 25.96 94.4699 26.04 95.1599 26.04C95.4399 26.04 95.7199 26.03 96.0299 26C96.2699 25.98 96.6399 25.89 97.0399 25.78C98.0699 25.5 98.6699 24.44 98.3899 23.42L98.0599 22.22H98.0399Z" fill="#333535"/>
<path d="M46.65 25.93C42.99 25.46 40.34 22.16 40.34 18.47V10.07H42.43C43.23 10.07 43.88 10.72 43.88 11.52V18.58C43.88 20.38 45.09 22.04 46.86 22.38C49.24 22.84 51.32 21.02 51.32 18.73V11.52C51.32 10.72 51.97 10.07 52.77 10.07H54.86V18.73C54.86 23.05 51.07 26.5 46.64 25.93H46.65Z" fill="#333535"/>
<path d="M72.0499 13.64C70.8099 11.75 69.0399 10.59 66.7999 10.2C66.2899 10.11 65.7899 10.07 65.2999 10.07C63.7499 10.07 62.2999 10.51 60.9799 11.38C59.0999 12.62 57.9499 14.39 57.5499 16.63C57.4799 17.03 57.4499 17.47 57.4299 17.94H57.4099C57.4099 25.96 57.4099 26.82 57.4099 27.2V30.04V30.93H59.1599C59.9699 30.93 60.6199 30.28 60.6199 29.47V24.42C62.1899 25.5 63.7399 25.84 63.7399 25.84C64.3199 25.95 64.8999 26.01 65.4599 26.01C66.9999 26.01 68.4499 25.57 69.7599 24.72C71.6599 23.48 72.8299 21.71 73.2199 19.45C73.5899 17.34 73.1899 15.39 72.0399 13.64H72.0499ZM68.7899 21.46C67.8999 22.36 66.6899 22.85 65.3899 22.86H65.3799C62.7199 22.86 60.6299 20.75 60.6199 18.05C60.6199 15.36 62.6999 13.24 65.3699 13.23H65.3999C68.0699 13.23 70.1699 15.34 70.1799 18.03C70.1799 19.34 69.6899 20.56 68.7899 21.47V21.46Z" fill="#333535"/>
</g>
<defs>
<clipPath id="clip0_595_23">
<rect width="150.44" height="37.46" fill="white"/>
</clipPath>
</defs>
</svg>
