<svg version="1.2" baseProfile="tiny-ps" xmlns="http://www.w3.org/2000/svg" viewBox="0 0 616 257" width="616" height="257">
	<title>logo-svg</title>
	<style>
		tspan { white-space:pre }
		.shp0 { fill: #222222 } 
		.shp1 { fill: #3161f1 } 
	</style>
	<g id="Layer">
		<g id="Layer">
			<g id="Layer">
				<g id="Layer">
					<path id="Layer" class="shp0" d="M303.3 73.1L303.3 136.5C303.3 160 322.5 179.2 346 179.2C350.3 179.2 353.7 175.7 353.7 171.5C353.7 167.2 350.2 163.8 346 163.8C331 163.8 318.8 151.6 318.8 136.6L318.8 88.2L346 88.2C350.3 88.2 353.7 84.7 353.7 80.5C353.7 76.2 350.2 72.8 346 72.8L318.8 72.8L318.8 38C318.8 33.7 315.3 30.3 311.1 30.3C306.9 30.3 303.4 33.8 303.4 38L303.4 73.1" />
					<path id="Layer" class="shp0" d="M375.8 95.8C371.5 95.8 368.1 99.3 368.1 103.5L368.1 171.4C368.1 175.7 371.6 179.1 375.8 179.1C380 179.1 383.5 175.6 383.5 171.4L383.5 103.5C383.5 99.3 380.1 95.8 375.8 95.8Z" />
					<path id="Layer" fill-rule="evenodd" class="shp0" d="M513.2 127.3C513.2 157 489 181.2 459.3 181.2C444.3 181.2 430.7 175 420.9 165L420.9 221.3C420.9 225.5 417.4 229 413.2 229C409 229 405.5 225.6 405.5 221.3L405.5 127.2C405.5 97.5 429.7 73.3 459.4 73.3C489.1 73.3 513.2 97.6 513.2 127.3ZM497.8 127.3C497.8 106.1 480.6 88.9 459.4 88.9C438.2 88.9 421 106.1 421 127.3C421 148.5 438.2 165.7 459.4 165.7C480.6 165.7 497.8 148.5 497.8 127.3Z" />
					<path id="Layer" class="shp0" d="M584.1 118.2L557.1 118.2C549 118.2 542.4 111.6 542.4 103.5C542.4 95.4 549 88.8 557.1 88.8L598.8 88.8C603.1 88.8 606.5 85.3 606.5 81.1C606.5 76.9 603 73.4 598.8 73.4L557.1 73.4C540.5 73.4 526.9 86.9 526.9 103.6C526.9 120.3 540.4 133.8 557.1 133.8L584.1 133.8C592.2 133.8 598.8 140.4 598.8 148.5L598.8 149.1C598.8 157.2 592.2 163.8 584.1 163.8L542.4 163.8C538.1 163.8 534.7 167.3 534.7 171.5C534.7 175.8 538.2 179.2 542.4 179.2L584.1 179.2C600.8 179.2 614.3 165.7 614.3 149L614.3 148.4C614.3 131.8 600.7 118.2 584.1 118.2Z" />
					<path id="Layer" class="shp0" d="M375.8 90.3C370.71 90.3 366.6 86.19 366.6 81.1C366.6 76.01 370.71 71.9 375.8 71.9C380.89 71.9 385 76.01 385 81.1C385 86.19 380.89 90.3 375.8 90.3Z" />
				</g>
			</g>
			<g id="Layer">
				<path id="Layer" fill-rule="evenodd" class="shp0" d="M350.5 209.2L350.6 209.2C352.7 206.1 355.7 204.4 358.8 204.4C363.9 204.4 365.8 208.6 365.8 212.8C365.8 219.9 360.6 228.8 351.3 228.8C347.2 228.8 344.1 227.1 344.1 222.8C344.1 221.7 344.3 220.3 344.5 219.2L349.6 194.1L353.6 194.1L350.5 209.2ZM348.5 219.3C348.3 220.1 348.2 221 348.2 222.2C348.2 224.4 349.5 225.7 352 225.7C358 225.7 361.7 218.5 361.7 213.4C361.7 210.5 360.4 207.8 357.3 207.8C353.8 207.8 350.3 211.4 349.1 216.9L348.5 219.3Z" />
				<path id="Layer" class="shp0" d="M374.3 205L376.6 217.6C377.1 220.3 377.4 222 377.7 223.7L377.8 223.7C378.4 222.2 379.1 220.6 380.3 218L386.2 205L390.4 205L381.7 222.7C379.2 227.8 376.8 231.9 373.7 234.9C371.1 237.6 368.3 238.7 366.9 238.9L365.9 235.5C366.9 235.1 368.6 234.5 370.2 233.2C371.7 232 373.4 230.1 374.7 227.9C374.9 227.5 374.9 227.2 374.8 226.8L370.1 204.9L374.3 204.9L374.3 205Z" />
				<path id="Layer" class="shp0" d="M445.3 205L447.3 218.3C447.6 220.9 447.9 222.7 448 224L448.1 224C448.6 222.7 449.2 221.2 450.6 218.6L457.7 205L462.1 205L449.1 228.3L445.1 228.3L441.1 205L445.3 205Z" />
				<path id="Layer" class="shp0" d="M463 228.3L467.5 205L471.5 205L467 228.3L463 228.3ZM468.2 198.4C468.2 196.9 469.4 195.7 470.9 195.7C472.3 195.7 473.3 196.8 473.3 198.2C473.3 199.8 472.1 200.9 470.6 200.9C469.1 201 468.2 199.9 468.2 198.4Z" />
				<path id="Layer" class="shp0" d="M475 228.3L477.8 213.3C478.4 210.3 478.8 207.2 479 205L482.5 205C482.3 206.6 482.1 208.3 481.9 210.1L482 210.1C483.5 206.9 486 204.5 489.1 204.5C489.4 204.5 489.9 204.5 490.2 204.6L489.4 208.6C489.2 208.6 488.8 208.5 488.3 208.5C484.8 208.5 481.7 212.7 480.7 218.1L478.8 228.4L475 228.4L475 228.3Z" />
				<path id="Layer" class="shp0" d="M503 198.7L501.8 205L507.4 205L506.8 208.1L501.2 208.1L499 219.4C498.8 220.7 498.6 221.9 498.6 223.2C498.6 224.6 499.3 225.4 500.8 225.4C501.5 225.4 502.1 225.4 502.7 225.3L502.5 228.4C501.8 228.7 500.6 228.8 499.4 228.8C495.8 228.8 494.5 226.6 494.5 224.3C494.5 223 494.6 221.6 495 219.9L497.3 208.1L493.9 208.1L494.5 205L497.8 205L498.8 199.7L503 198.7Z" />
				<path id="Layer" class="shp0" d="M531.3 205L528.2 221.5C527.7 224.1 527.4 226.4 527.1 228.3L523.5 228.3L524.1 223.9L524 223.9C521.9 226.9 518.8 228.8 515.8 228.8C512.8 228.8 509.7 227.4 509.7 222.1C509.7 221 509.8 219.7 510.1 218.2L512.6 205L516.6 205L514.1 218C513.8 219.3 513.7 220.4 513.7 221.4C513.7 223.8 514.7 225.4 517.5 225.4C520.4 225.4 524.1 222 525.1 216.9L527.4 204.9L531.3 204.9L531.3 205Z" />
				<path id="Layer" class="shp0" d="M534.9 228.3L538 211.8C538.5 209.2 538.8 206.9 539.1 205L542.7 205L542.1 209.6L542.2 209.6C544.3 206.3 547.4 204.5 550.8 204.5C553.6 204.5 556.7 206.1 556.7 211C556.7 212 556.5 213.5 556.3 214.8L553.7 228.4L549.7 228.4L552.3 215C552.5 214.1 552.6 213 552.6 212C552.6 209.6 551.7 207.9 548.9 207.9C546.1 207.9 542 211.3 540.9 217.1L538.8 228.4L534.9 228.4L534.9 228.3Z" />
				<path id="Layer" class="shp0" d="M584.1 205L581 221.5C580.5 224.1 580.2 226.4 579.9 228.3L576.3 228.3L576.9 223.9L576.8 223.9C574.7 226.9 571.6 228.8 568.6 228.8C565.6 228.8 562.5 227.4 562.5 222.1C562.5 221 562.6 219.7 562.9 218.2L565.4 205L569.4 205L566.9 218C566.6 219.3 566.5 220.4 566.5 221.4C566.5 223.8 567.5 225.4 570.3 225.4C573.2 225.4 576.9 222 577.9 216.9L580.2 204.9L584.1 204.9L584.1 205Z" />
				<path id="Layer" class="shp0" d="M587.8 224.2C588.9 224.9 590.9 225.6 592.8 225.6C595.5 225.6 597.2 223.9 597.2 221.8C597.2 220 596.4 218.9 594 217.5C591.3 216 589.8 213.9 589.8 211.6C589.8 207.5 593.3 204.4 598.2 204.4C600.3 204.4 602.2 205 603.1 205.6L602 208.6C601.2 208.1 599.7 207.5 598 207.5C595.6 207.5 593.9 209 593.9 211C593.9 212.7 595 213.7 597.1 214.9C599.7 216.4 601.5 218.4 601.5 221C601.5 225.9 597.5 228.7 592.6 228.7C590.1 228.7 587.9 227.9 586.8 227.1L587.8 224.2Z" />
			</g>
		</g>
	</g>
	<path id="Layer" fill-rule="evenodd" class="shp1" d="M253.3 129.2C253.3 198.2 197.3 254.2 128.3 254.2C59.3 254.2 3.3 198.2 3.3 129.2C3.3 60.2 59.3 4.2 128.3 4.2C197.3 4.2 253.3 60.2 253.3 129.2ZM156.8 206.8L128.3 157.4L99.8 206.8L128.3 196.1L156.8 206.8ZM172.6 88.6L151.8 86C140.9 84.7 132.4 76 131.3 65.1L128.3 35.4L125.3 65.1C124.1 76 115.7 84.6 104.8 86L84 88.6L104.8 91.2C115.7 92.5 124.2 101.2 125.3 112.1L128.3 141.8L131.3 112.1C132.5 101.2 140.9 92.6 151.8 91.2L172.6 88.6Z" />
</svg>